<?xml version="1.0" standalone="no"?><!DOCTYPE svg PUBLIC "-//W3C//DTD SVG 1.1//EN" "http://www.w3.org/Graphics/SVG/1.1/DTD/svg11.dtd"><svg t="1697508149739" class="icon" viewBox="0 0 1024 1024" version="1.1" xmlns="http://www.w3.org/2000/svg" p-id="9790" xmlns:xlink="http://www.w3.org/1999/xlink" width="200" height="200"><path d="M254.7712 104.2432c-48.5376 14.7456-79.0528 49.5616-87.8592 99.5328-5.7344 33.792 7.7824 72.704 34.816 99.5328 23.552 23.7568 50.176 34.6112 83.968 34.6112 33.3824-0.2048 58.368-10.6496 82.7392-34.816 14.336-14.1312 28.8768-36.864 28.8768-44.6464 0-1.4336 0.8192-4.096 2.048-6.144 3.4816-6.144 5.5296-32.768 3.6864-47.104-5.12-39.1168-29.4912-73.9328-63.2832-90.9312-22.3232-10.8544-27.4432-12.288-50.9952-13.1072-16.7936-0.6144-24.1664 0-33.9968 3.072zM315.392 133.12c55.9104 20.48 77.824 85.4016 46.08 136.192-12.4928 19.6608-30.72 32.3584-55.5008 38.7072-16.1792 4.096-26.2144 4.096-43.4176 0-44.032-10.8544-74.1376-55.5008-67.7888-100.5568 4.9152-35.2256 29.4912-64.9216 62.2592-75.3664 13.5168-4.3008 45.2608-3.6864 58.368 1.024zM581.632 339.968c-27.648 4.3008-37.6832 6.5536-55.296 12.288-21.9136 6.9632-52.6336 21.9136-71.0656 34.6112-6.7584 4.5056-13.312 8.3968-14.336 8.3968-1.2288 0-4.7104-3.6864-7.7824-8.192-12.6976-18.432-39.7312-37.6832-60.416-43.2128-8.6016-2.2528-10.0352-2.048-21.9136 4.096-41.7792 21.2992-91.7504 20.6848-135.5776-1.8432-7.9872-3.8912-9.8304-4.3008-18.432-2.048-28.8768 7.168-59.5968 34.4064-73.5232 65.536-10.6496 23.552-10.6496 22.3232-10.6496 159.1296V696.32h65.3312l0.6144 89.7024 0.6144 89.4976 5.12 10.0352c6.7584 13.312 16.5888 23.1424 29.4912 29.0816 10.24 4.7104 11.6736 4.9152 69.8368 4.9152 32.9728 0 62.6688-1.024 66.56-2.048 12.6976-3.4816 27.0336-16.384 34.2016-30.5152 6.7584-12.6976 6.7584-13.1072 6.7584-41.3696 0-15.5648 0.2048-28.4672 0.6144-28.4672 0.2048 0 9.8304 9.0112 21.0944 20.0704 34.4064 33.3824 74.5472 57.344 118.5792 70.656 33.5872 10.24 37.0688 10.6496 86.016 10.4448 41.1648-0.2048 49.152-0.6144 62.6688-4.5056 66.3552-18.2272 109.9776-44.2368 153.8048-91.9552 56.5248-61.6448 84.1728-156.8768 69.4272-238.1824-6.7584-36.2496-11.4688-50.9952-26.8288-82.3296-48.7424-100.1472-152.1664-164.2496-263.168-163.0208-12.288 0-26.624 0.8192-31.744 1.6384z m84.7872 30.72c52.4288 10.8544 95.6416 33.1776 131.8912 68.4032 40.7552 39.5264 67.1744 89.7024 78.0288 147.8656 3.8912 20.6848 2.6624 72.704-2.048 92.9792-8.3968 36.2496-10.4448 42.3936-22.3232 65.9456-18.2272 36.6592-42.8032 66.56-77.0048 94.0032-8.192 6.3488-41.1648 25.6-52.0192 30.3104-18.8416 8.192-20.8896 8.8064-48.128 16.384-11.264 3.072-41.984 6.3488-59.392 6.3488-148.8896 0-269.9264-126.1568-262.3488-273.6128 1.4336-31.5392 5.5296-56.5248 11.6736-71.4752 0.8192-2.2528 2.2528-6.3488 3.072-9.216 2.048-7.9872 11.8784-28.2624 21.0944-44.032 30.3104-51.6096 83.3536-95.0272 139.8784-114.4832 28.0576-9.6256 50.7904-13.1072 85.8112-13.312 24.576-0.2048 36.6592 0.8192 51.8144 3.8912z m-457.1136 3.2768c43.4176 22.528 109.3632 22.1184 152.3712-0.6144 6.144-3.072 6.7584-3.072 18.432 3.2768 6.7584 3.4816 14.5408 8.6016 17.408 11.264 6.9632 6.5536 20.2752 22.7328 20.2752 24.7808 0 0.8192-4.3008 6.3488-9.6256 12.0832-42.8032 46.08-69.4272 97.28-78.6432 150.7328-6.144 36.2496-6.7584 73.5232-1.6384 99.328 4.096 19.8656 8.192 36.864 9.8304 40.96 1.024 2.2528 3.4816 8.6016 5.3248 14.336 1.8432 5.5296 6.9632 17.408 11.4688 26.4192l7.9872 15.9744v49.5616c0 54.0672-0.2048 54.6816-13.1072 64.9216-5.12 3.8912-9.0112 4.7104-28.0576 5.5296l-22.3232 1.024-0.4096-79.6672-0.6144-79.6672h-26.624l-0.6144 79.6672-0.4096 79.4624-21.0944-0.8192c-24.576-0.8192-31.5392-3.8912-38.0928-16.9984-4.3008-8.6016-4.3008-9.8304-4.3008-193.3312 0-101.376-0.6144-184.5248-1.4336-184.7296-11.6736-0.8192-22.7328-0.6144-24.576 1.024-2.048 1.2288-2.6624 20.8896-2.6624 85.4016V667.648H139.264l0.6144-113.2544c0.6144-98.9184 1.024-114.2784 4.096-122.88 8.192-23.9616 23.9616-43.2128 44.4416-54.4768 13.312-7.3728 12.6976-7.3728 20.8896-3.072z" p-id="9791" fill="#bfbfbf"></path><path d="M737.28 475.9552c-6.144 1.2288-14.9504 4.5056-19.456 7.168-4.5056 2.6624-45.2608 41.7792-90.5216 86.8352l-82.3296 82.1248-20.0704-20.0704c-21.2992-21.0944-33.1776-28.4672-51.2-31.9488-17.8176-3.2768-41.984 3.2768-56.5248 15.5648-27.648 23.1424-33.792 62.464-14.7456 93.184 9.216 14.7456 96.6656 100.7616 108.544 106.9056 24.7808 12.288 50.7904 11.4688 72.2944-2.6624 6.9632-4.7104 54.8864-51.2 121.4464-117.9648 103.0144-103.424 110.1824-111.2064 114.688-122.6752 7.3728-18.8416 6.7584-38.912-1.4336-56.32-10.6496-22.1184-27.648-35.6352-51.6096-40.7552-12.9024-2.6624-14.336-2.6624-29.0816 0.6144z m32.3584 33.792c20.0704 10.24 28.2624 32.9728 18.8416 52.224-5.7344 11.8784-217.2928 223.232-227.7376 227.5328-10.24 4.096-21.2992 3.8912-31.3344-0.8192s-100.1472-94.8224-103.424-103.2192c-4.096-11.0592-2.4576-26.4192 3.4816-35.84 6.144-9.4208 21.9136-18.8416 31.1296-18.8416 15.1552 0 21.2992 4.096 50.5856 32.9728 20.8896 20.48 30.3104 28.4672 33.792 28.4672 3.6864 0 26.8288-21.9136 95.0272-90.112 56.32-56.1152 92.7744-91.136 97.28-92.9792 9.8304-4.3008 23.3472-4.096 32.3584 0.6144z" p-id="9792" fill="#bfbfbf"></path></svg>