<?xml version="1.0" standalone="no"?><!DOCTYPE svg PUBLIC "-//W3C//DTD SVG 1.1//EN" "http://www.w3.org/Graphics/SVG/1.1/DTD/svg11.dtd"><svg t="1701498504714" class="icon" viewBox="0 0 1157 1024" version="1.1" xmlns="http://www.w3.org/2000/svg" p-id="8330" xmlns:xlink="http://www.w3.org/1999/xlink" width="225.9765625" height="200"><path d="M408.194429 510.222366h81.523133v133.529269a44.564877 44.564877 0 0 0 44.482196 44.482196h89.047073a44.564877 44.564877 0 0 0 44.482196-44.482196V510.222366h80.779007c28.69019 0 34.395155-4.712798 9.838999-29.765039L623.329512 345.522487c-45.391683-45.060961-44.812919-45.226322-90.039242 0L398.438111 480.457327c-24.886879 25.052241-16.453452 29.765038 9.756318 29.765039z" fill="#e6e6e6" p-id="8331"></path><path d="M1024 133.529269H489.717562A133.61195 133.61195 0 0 0 356.188292 0H133.529269A133.61195 133.61195 0 0 0 0 133.529269v756.858781a133.61195 133.61195 0 0 0 133.529269 133.529269h890.470731A133.61195 133.61195 0 0 0 1157.529269 890.38805V267.141219a133.61195 133.61195 0 0 0-133.529269-133.61195z m44.482196 756.858781a44.564877 44.564877 0 0 1-44.482196 44.482196H133.529269a44.564877 44.564877 0 0 1-44.482196-44.482196V267.141219a44.564877 44.564877 0 0 1 44.482196-44.482196h890.470731a44.564877 44.564877 0 0 1 44.482196 44.482196v623.246831z" fill="#e6e6e6" p-id="8332"></path><path d="M756.858781 712.293904a44.564877 44.564877 0 0 1-44.482196 44.482196H445.235365a44.564877 44.564877 0 0 1-44.482196-44.482196v-44.482196H311.954138v44.482196a133.61195 133.61195 0 0 0 133.529269 133.529269h267.14122a133.61195 133.61195 0 0 0 133.529269-133.529269v-44.482196H757.106823z" fill="#e6e6e6" p-id="8333"></path></svg>