<?xml version="1.0" standalone="no"?><!DOCTYPE svg PUBLIC "-//W3C//DTD SVG 1.1//EN" "http://www.w3.org/Graphics/SVG/1.1/DTD/svg11.dtd"><svg t="1697508077146" class="icon" viewBox="0 0 1024 1024" version="1.1" xmlns="http://www.w3.org/2000/svg" p-id="5096" xmlns:xlink="http://www.w3.org/1999/xlink" width="200" height="200"><path d="M994.3 168.26666667L846.8 75.06666667C826.5 62.16666667 799.7 68.26666667 787 88.66666667c-12.7 20.4-6.5 47.3 13.9 60.2l61.5 38.9L675 230.26666667C631.6 111.66666667 525.5 29.46666667 404.3 13.26666667 385 9.76666667 365.2 7.66666667 344.9 7.66666667 160.4 7.66666667 10.8 157.36666667 10.8 342.06666667c0 170.5 127.6 310.9 292.4 331.5v128.3h-83.5c-23.1 0-41.8 18.7-41.8 41.8 0 23.1 18.7 41.8 41.8 41.8h83.5V988.66666667l10.2 10.2c17 17 44.7 17 61.7 0l11.6-11.5V885.56666667h83.5c23.1 0 41.8-18.7 41.8-41.8 0-23.1-18.7-41.8-41.8-41.8h-83.5V677.36666667c16.5-1.2 33.1-3.3 49.7-7 166.2-37.8 274.3-193.3 257.4-358.6l186.1-42.3-37.3 59.9c-12.7 20.4-6.5 47.3 13.9 60.2 20.4 12.9 47.2 6.8 59.9-13.6l92-147.6c12.5-20.3 6.3-47.3-14.1-60.1z m-643.6 441c-145.6 0-263.6-118-263.6-263.6 0-145.6 118-263.6 263.6-263.6s263.6 118 263.6 263.6-118 263.6-263.6 263.6z m0 0" p-id="5097" fill="#bfbfbf"></path></svg>