<?xml version="1.0" standalone="no"?><!DOCTYPE svg PUBLIC "-//W3C//DTD SVG 1.1//EN" "http://www.w3.org/Graphics/SVG/1.1/DTD/svg11.dtd"><svg t="1698080333356" class="icon" viewBox="0 0 1024 1024" version="1.1" xmlns="http://www.w3.org/2000/svg" p-id="4990" xmlns:xlink="http://www.w3.org/1999/xlink" width="200" height="200"><path d="M601.6 392.533333h-181.333333c-12.8 0-21.333333 8.533333-21.333334 21.333334s8.533333 21.333333 21.333334 21.333333h181.333333c12.8 0 21.333333-8.533333 21.333333-21.333333s-8.533333-21.333333-21.333333-21.333334z m64-130.133333H358.4c-12.8 0-21.333333 8.533333-21.333333 21.333333s8.533333 21.333333 21.333333 21.333334h309.333333c12.8 0 21.333333-8.533333 21.333334-21.333334s-10.666667-21.333333-23.466667-21.333333z m219.733333 147.2l-42.666666 25.6V213.333333c0-46.933333-38.4-85.333333-85.333334-85.333333H268.8c-46.933333 0-85.333333 38.4-85.333333 85.333333v224l-42.666667-25.6c-27.733333-17.066667-64 4.266667-64 36.266667v384c0 36.266667 27.733333 64 64 64h746.666667c36.266667 0 64-27.733333 64-64V445.866667c-2.133333-32-38.4-53.333333-66.133334-36.266667z m-87.466666 51.2l-253.866667 153.6c-21.333333 12.8-44.8 12.8-66.133333 0l-253.866667-153.6V213.333333c0-23.466667 19.2-42.666667 42.666667-42.666666h488.533333c23.466667 0 42.666667 19.2 42.666667 42.666666v247.466667z" fill="#e6e6e6" p-id="4991"></path></svg>
